<svg xmlns:xlink="http://www.w3.org/1999/xlink" version="1.1" style="font-family:'lucida grande', 'lucida sans unicode', arial, helvetica, sans-serif;font-size:12px;" xmlns="http://www.w3.org/2000/svg" width="600" height="400"><desc>Created with Highcharts 4.0.4</desc><defs><clipPath id="highcharts-67"><rect x="0" y="0" width="510" height="218"></rect></clipPath></defs><rect x="0" y="0" width="600" height="400" strokeWidth="0" fill="#FFFFFF" class=" highcharts-background"></rect><g class="highcharts-grid" ><path fill="none" d="M 79.5 71 L 79.5 289" stroke="#E0E0E0" stroke-width="1" opacity="1"></path><path fill="none" d="M 181.5 71 L 181.5 289" stroke="#E0E0E0" stroke-width="1" opacity="1"></path><path fill="none" d="M 283.5 71 L 283.5 289" stroke="#E0E0E0" stroke-width="1" opacity="1"></path><path fill="none" d="M 385.5 71 L 385.5 289" stroke="#E0E0E0" stroke-width="1" opacity="1"></path><path fill="none" d="M 487.5 71 L 487.5 289" stroke="#E0E0E0" stroke-width="1" opacity="1"></path><path fill="none" d="M 590.5 71 L 590.5 289" stroke="#E0E0E0" stroke-width="1" opacity="1"></path></g><g class="highcharts-grid" ><path fill="none" d="M 80 289.5 L 590 289.5" stroke="#E0E0E0" stroke-width="1" opacity="1"></path><path fill="none" d="M 80 235.5 L 590 235.5" stroke="#E0E0E0" stroke-width="1" opacity="1"></path><path fill="none" d="M 80 180.5 L 590 180.5" stroke="#E0E0E0" stroke-width="1" opacity="1"></path><path fill="none" d="M 80 126.5 L 590 126.5" stroke="#E0E0E0" stroke-width="1" opacity="1"></path><path fill="none" d="M 80 70.5 L 590 70.5" stroke="#E0E0E0" stroke-width="1" opacity="1"></path><path fill="none" d="M 80 70.5 L 590 70.5" stroke="#C0C0C0" stroke-width="1"  opacity="1"></path><path fill="none" d="M 80 126.5 L 590 126.5" stroke="#C0C0C0" stroke-width="1"  opacity="1"></path><path fill="none" d="M 80 180.5 L 590 180.5" stroke="#C0C0C0" stroke-width="1"  opacity="1"></path><path fill="none" d="M 80 235.5 L 590 235.5" stroke="#C0C0C0" stroke-width="1"  opacity="1"></path><path fill="none" d="M 80 289.5 L 590 289.5" stroke="#C0C0C0" stroke-width="1"  opacity="1"></path></g><g class="highcharts-axis" ><path fill="none" d="M 181.5 289 L 181.5 299" stroke="#C0D0E0" stroke-width="1" opacity="1"></path><path fill="none" d="M 283.5 289 L 283.5 299" stroke="#C0D0E0" stroke-width="1" opacity="1"></path><path fill="none" d="M 385.5 289 L 385.5 299" stroke="#C0D0E0" stroke-width="1" opacity="1"></path><path fill="none" d="M 487.5 289 L 487.5 299" stroke="#C0D0E0" stroke-width="1" opacity="1"></path><path fill="none" d="M 590.5 289 L 590.5 299" stroke="#C0D0E0" stroke-width="1" opacity="1"></path><path fill="none" d="M 79.5 289 L 79.5 299" stroke="#C0D0E0" stroke-width="1" opacity="1"></path><text x="335"  text-anchor="middle" transform="translate(0,0)" class=" highcharts-xaxis-title" style="color:#707070;fill:#707070;" visibility="visible" y="334">最大报警率</text><path fill="none" d="M 80 289.5 L 590 289.5" stroke="#C0D0E0" stroke-width="1"  visibility="visible"></path></g><g class="highcharts-axis" ><text x="29.71875"  text-anchor="middle" transform="translate(0,0) rotate(270 29.71875 180)" class=" highcharts-yaxis-title" style="color:#707070;fill:#707070;" visibility="visible" y="180">平均报警率</text></g><g class="highcharts-series-group" ><g class="highcharts-series" visibility="visible"  transform="translate(80,71) scale(1 1)" clip-path="url(#highcharts-67)"><path fill="rgb(0,255,0)" fill-opacity="0.75" d="M 2.2648549702353193e-14 218 L 204 218 L 204 163.5 L 2.2648549702353193e-14 163.5" ></path><path fill="none" d="M 2.2648549702353193e-14 218 L 204 218 M 204 163.5 L 2.2648549702353193e-14 163.5" stroke="rgb(0,255,0)" stroke-opacity="0.5" stroke-width="1"  stroke-linejoin="round" stroke-linecap="round"></path></g><g class="highcharts-markers" visibility="visible"  transform="translate(80,71) scale(1 1)" clip-path="none"></g><g class="highcharts-series" visibility="visible"  transform="translate(80,71) scale(1 1)" clip-path="url(#highcharts-67)"><path fill="rgb(0,0,255)" fill-opacity="0.75" d="M 2.2648549702353193e-14 163.5 L 204 163.5 L 204 218 L 306 218 L 306 109 L 204 109 L 204 109 L 2.2648549702353193e-14 109" ></path><path fill="none" d="M 2.2648549702353193e-14 163.5 L 204 163.5 L 204 218 L 306 218 M 306 109 L 204 109 L 204 109 L 2.2648549702353193e-14 109" stroke="rgb(0,0,255)" stroke-opacity="0.5" stroke-width="1"  stroke-linejoin="round" stroke-linecap="round"></path></g><g class="highcharts-markers" visibility="visible"  transform="translate(80,71) scale(1 1)" clip-path="none"></g><g class="highcharts-series" visibility="visible"  transform="translate(80,71) scale(1 1)" clip-path="url(#highcharts-67)"><path fill="rgb(255,255,0)" fill-opacity="0.75" d="M 306 218 L 407.99999999999994 218 L 407.99999999999994 109 L 306 109" ></path><path fill="none" d="M 306 218 L 407.99999999999994 218 M 407.99999999999994 109 L 306 109" stroke="rgb(255,255,0)" stroke-opacity="0.5" stroke-width="1"  stroke-linejoin="round" stroke-linecap="round"></path></g><g class="highcharts-markers" visibility="visible"  transform="translate(80,71) scale(1 1)" clip-path="none"></g><g class="highcharts-series" visibility="visible"  transform="translate(80,71) scale(1 1)" clip-path="url(#highcharts-67)"><path fill="rgb(255,128,0)" fill-opacity="0.75" d="M 2.2648549702353193e-14 109 L 407.99999999999994 109 L 407.99999999999994 218 L 510 218 L 510 54.5 L 407.99999999999994 54.5 L 407.99999999999994 54.5 L 2.2648549702353193e-14 54.5" ></path><path fill="none" d="M 2.2648549702353193e-14 109 L 407.99999999999994 109 L 407.99999999999994 218 L 510 218 M 510 54.5 L 407.99999999999994 54.5 L 407.99999999999994 54.5 L 2.2648549702353193e-14 54.5" stroke="rgb(255,128,0)" stroke-opacity="0.5" stroke-width="1"  stroke-linejoin="round" stroke-linecap="round"></path></g><g class="highcharts-markers" visibility="visible"  transform="translate(80,71) scale(1 1)" clip-path="none"></g><g class="highcharts-series" visibility="visible"  transform="translate(80,71) scale(1 1)" clip-path="url(#highcharts-67)"><path fill="rgb(227,23,13)" fill-opacity="0.75" d="M 2.2648549702353193e-14 54.5 L 510 54.5 L 510 2.842170943040401e-14 L 2.2648549702353193e-14 2.842170943040401e-14" ></path><path fill="none" d="M 2.2648549702353193e-14 54.5 L 510 54.5 M 510 2.842170943040401e-14 L 2.2648549702353193e-14 2.842170943040401e-14" stroke="rgb(227,23,13)" stroke-opacity="0.5" stroke-width="1"  stroke-linejoin="round" stroke-linecap="round"></path></g><g class="highcharts-markers" visibility="visible"  transform="translate(80,71) scale(1 1)" clip-path="none"></g><g class="highcharts-series" visibility="visible"  transform="translate(80,71) scale(1 1)" clip-path="url(#highcharts-67)"></g><g class="highcharts-markers" visibility="visible"  transform="translate(80,71) scale(1 1)" clip-path="none"><path fill="#7cb5ec" d="M 0 210 L 8 226 -8 226 Z"></path><path fill="#7cb5ec" d="M 0 210 L 8 226 -8 226 Z"></path></g><g class="highcharts-series" visibility="visible"  transform="translate(80,71) scale(1 1)" clip-path="url(#highcharts-67)"></g><g class="highcharts-markers" visibility="visible"  transform="translate(80,71) scale(1 1)" clip-path="none"></g></g><text x="300" text-anchor="middle" class="highcharts-title"  style="color:#333333;font-size:18px;fill:#333333;width:536px;" y="25"><tspan style="font-size: large; fill:black; font-weight:bold">报警系统等级评估</tspan></text><text x="300" text-anchor="middle" class="highcharts-subtitle"  style="color:#555555;fill:#555555;width:536px;" y="54"><tspan>装置: , 时间: 2017-02-09 13:44:01 --- 2017-02-10 13:44:01</tspan></text><g class="highcharts-data-labels" visibility="visible"  transform="translate(80,71) scale(1 1)" opacity="1"><g  style="cursor:default;" transform="translate(0,192)"><text x="3"  style="font-size:11px;color:#606060;fill:#606060;" y="17"><tspan style="fill:black; font-weight:bold">装置</tspan></text></g><g  style="cursor:default;" transform="translate(0,192)"><text x="3"  style="font-size:11px;color:#606060;fill:#606060;" y="17"><tspan style="fill:black; font-weight:bold">全流程</tspan></text></g></g><g class="highcharts-data-labels" visibility="visible"  transform="translate(80,71) scale(1 1)" opacity="1"><g  style="cursor:default;" transform="translate(20,168)"><text x="3"  style="font-size:11px;color:#606060;fill:#606060;" y="17"><tspan style="font-size: large; fill:black; font-weight:bold">1-可预测的</tspan></text></g><g  style="cursor:default;" transform="translate(224,130)"><text x="3"  style="font-size:11px;color:#606060;fill:#606060;" y="17"><tspan style="font-size: large; fill:black; font-weight:bold">2-鲁棒的</tspan></text></g><g  style="cursor:default;" transform="translate(326,130)"><text x="3"  style="font-size:11px;color:#606060;fill:#606060;" y="17"><tspan style="font-size: large; fill:black; font-weight:bold">3-稳定的</tspan></text></g><g  style="cursor:default;" transform="translate(409,75)"><text x="3"  style="font-size:11px;color:#606060;fill:#606060;" y="17"><tspan style="font-size: large; fill:black; font-weight:bold">4-反应性的</tspan></text></g><g  style="cursor:default;" transform="translate(357,4)"><text x="3"  style="font-size:11px;color:#606060;fill:#606060;" y="17"><tspan style="font-size: large; fill:black; font-weight:bold">5-超负荷的</tspan></text></g></g><g class="highcharts-legend"  transform="translate(39,362)"><g ><g><g class="highcharts-legend-item"  transform="translate(8,3)"><text x="21" style="color:#333333;font-size:12px;font-weight:bold;cursor:pointer;fill:#333333;" text-anchor="start"  y="16">1-可预测的</text><rect x="0" y="5" width="16" height="12"  fill="rgb(0,255,0)" fill-opacity="0.5"></rect></g><g class="highcharts-legend-item"  transform="translate(120.046875,3)"><text x="21" y="16" style="color:#333333;font-size:12px;font-weight:bold;cursor:pointer;fill:#333333;" text-anchor="start" >2-鲁棒的</text><rect x="0" y="5" width="16" height="12"  fill="rgb(0,0,255)" fill-opacity="0.5"></rect></g><g class="highcharts-legend-item"  transform="translate(218.5,3)"><text x="21" y="16" style="color:#333333;font-size:12px;font-weight:bold;cursor:pointer;fill:#333333;" text-anchor="start" >3-稳定的</text><rect x="0" y="5" width="16" height="12"  fill="rgb(255,255,0)" fill-opacity="0.5"></rect></g><g class="highcharts-legend-item"  transform="translate(316.953125,3)"><text x="21" y="16" style="color:#333333;font-size:12px;font-weight:bold;cursor:pointer;fill:#333333;" text-anchor="start" >4-反应性的</text><rect x="0" y="5" width="16" height="12"  fill="rgb(255,128,0)" fill-opacity="0.5"></rect></g><g class="highcharts-legend-item"  transform="translate(429,3)"><text x="21" y="16" style="color:#333333;font-size:12px;font-weight:bold;cursor:pointer;fill:#333333;" text-anchor="start" >5-超负荷的</text><rect x="0" y="5" width="16" height="12"  fill="rgb(227,23,13)" fill-opacity="0.5"></rect></g></g></g></g><g class="highcharts-axis-labels highcharts-xaxis-labels" ><text x="80" text-anchor="middle" style="color:#606060;cursor:default;font-size:11px;fill:#606060;" y="311" opacity="1">0.1</text><text x="182" text-anchor="middle" style="color:#606060;cursor:default;font-size:11px;fill:#606060;" y="311" opacity="1">1</text><text x="284" text-anchor="middle" style="color:#606060;cursor:default;font-size:11px;fill:#606060;" y="311" opacity="1">10</text><text x="386" text-anchor="middle" style="color:#606060;cursor:default;font-size:11px;fill:#606060;" y="311" opacity="1">100</text><text x="488" text-anchor="middle" style="color:#606060;cursor:default;font-size:11px;fill:#606060;" y="311" opacity="1">1k</text><text x="587.6796875" text-anchor="middle" style="color:#606060;cursor:default;font-size:11px;fill:#606060;" y="311" opacity="1">10k</text></g><g class="highcharts-axis-labels highcharts-yaxis-labels" ><text x="65" text-anchor="end" style="width:178px;color:#606060;cursor:default;font-size:11px;fill:#606060;" y="293" opacity="1">0.1</text><text x="65" text-anchor="end" style="width:178px;color:#606060;cursor:default;font-size:11px;fill:#606060;" y="238.5" opacity="1">1</text><text x="65" text-anchor="end" style="width:178px;color:#606060;cursor:default;font-size:11px;fill:#606060;" y="184" opacity="1">10</text><text x="65" text-anchor="end" style="width:178px;color:#606060;cursor:default;font-size:11px;fill:#606060;" y="129.5" opacity="1">100</text><text x="65" text-anchor="end" style="width:178px;color:#606060;cursor:default;font-size:11px;fill:#606060;" y="75" opacity="1">1k</text></g><g class="highcharts-tooltip"  style="cursor:default;padding:0;white-space:nowrap;" transform="translate(0,-9999)"><path fill="none" d="M 3 0 L 13 0 C 16 0 16 0 16 3 L 16 13 C 16 16 16 16 13 16 L 3 16 C 0 16 0 16 0 13 L 0 3 C 0 0 0 0 3 0"  stroke="black" stroke-opacity="0.049999999999999996" stroke-width="5" transform="translate(1, 1)"></path><path fill="none" d="M 3 0 L 13 0 C 16 0 16 0 16 3 L 16 13 C 16 16 16 16 13 16 L 3 16 C 0 16 0 16 0 13 L 0 3 C 0 0 0 0 3 0"  stroke="black" stroke-opacity="0.09999999999999999" stroke-width="3" transform="translate(1, 1)"></path><path fill="none" d="M 3 0 L 13 0 C 16 0 16 0 16 3 L 16 13 C 16 16 16 16 13 16 L 3 16 C 0 16 0 16 0 13 L 0 3 C 0 0 0 0 3 0"  stroke="black" stroke-opacity="0.15" stroke-width="1" transform="translate(1, 1)"></path><path fill="rgb(249, 249, 249)" fill-opacity=" .85" d="M 3 0 L 13 0 C 16 0 16 0 16 3 L 16 13 C 16 16 16 16 13 16 L 3 16 C 0 16 0 16 0 13 L 0 3 C 0 0 0 0 3 0"></path><text x="8"  style="font-size:12px;color:#333333;fill:#333333;" y="22"></text></g><text x="590" text-anchor="end"  style="cursor:pointer;color:#909090;font-size:9px;fill:#909090;" y="395"></text></svg>