<svg xmlns:xlink="http://www.w3.org/1999/xlink" version="1.1" style="font-family:'lucida grande', 'lucida sans unicode', arial, helvetica, sans-serif;font-size:12px;" xmlns="http://www.w3.org/2000/svg" width="600" height="400"><desc>Created with Highcharts 4.0.4</desc><defs><clipPath id="highcharts-73"><rect x="0" y="0" width="527" height="243"></rect></clipPath></defs><rect x="0" y="0" width="600" height="400" strokeWidth="0" fill="#FFFFFF" class=" highcharts-background"></rect><g class="highcharts-grid" ></g><g class="highcharts-grid" ><path fill="none" d="M 63 193.5 L 590 193.5" stroke="#C0C0C0" stroke-width="1"  opacity="1"></path></g><g class="highcharts-axis" ><path fill="none" d="M 132076.5 314 L 132076.5 324" stroke="#C0D0E0" stroke-width="1" opacity="1"></path><path fill="none" d="M 63 314.5 L 590 314.5" stroke="#C0D0E0" stroke-width="1"  visibility="visible"></path></g><g class="highcharts-axis" ><text x="29.578125"  text-anchor="middle" transform="translate(0,0) rotate(270 29.578125 192.5)" class=" highcharts-yaxis-title" style="color:#707070;fill:#707070;" visibility="visible" y="192.5">报警个数</text></g><g class="highcharts-series-group" ><g class="highcharts-series" visibility="visible"  transform="translate(63,71) scale(1 1)" clip-path="url(#highcharts-73)"><rect x="169" y="123" width="190" height="0" fill="#ff0000" rx="0" ry="0"></rect></g><g class="highcharts-markers" visibility="visible"  transform="translate(63,71) scale(1 1)" clip-path="none"></g></g><text x="300" text-anchor="middle" class="highcharts-title"  style="color:#333333;font-size:18px;fill:#333333;width:536px;" y="25"><tspan style="font-size: large; fill:black; font-weight:bold">报警持续时间Top 20统计</tspan></text><text x="300" text-anchor="middle" class="highcharts-subtitle"  style="color:#555555;fill:#555555;width:536px;" y="54"><tspan>装置: , 时间: 2017-02-09 13:41:16 --- 2017-02-10 13:41:16</tspan></text><g class="highcharts-data-labels" visibility="visible"  transform="translate(63,71) scale(1 1)" opacity="1"><g  style="cursor:default;" transform="translate(255,89)"><text x="3"  style="font-size:11px;color:#666;fill:#666;" y="17"><tspan style="font-size: large; fill:black; font-weight:bold">0</tspan></text></g></g><g class="highcharts-legend"  transform="translate(258,362)"><g ><g><g class="highcharts-legend-item"  transform="translate(8,3)"><text x="21" style="color:#333333;font-size:12px;font-weight:bold;cursor:pointer;fill:#333333;" text-anchor="start"  y="16">报警个数</text><rect x="0" y="5" width="16" height="12"  fill="#ff0000"></rect></g></g></g></g><g class="highcharts-axis-labels highcharts-xaxis-labels" ><text x="326.5" text-anchor="middle" style="width:507px;color:#606060;cursor:default;font-size:11px;fill:#606060;" y="336" opacity="1">装置</text></g><g class="highcharts-axis-labels highcharts-yaxis-labels" ><text x="48" text-anchor="end" style="width:178px;color:#606060;cursor:default;font-size:11px;fill:#606060;" y="196.5" opacity="1">0</text></g><g class="highcharts-tooltip"  style="cursor:default;padding:0;white-space:nowrap;" transform="translate(0,-9999)"><path fill="none" d="M 3 0 L 13 0 C 16 0 16 0 16 3 L 16 13 C 16 16 16 16 13 16 L 3 16 C 0 16 0 16 0 13 L 0 3 C 0 0 0 0 3 0"  stroke="black" stroke-opacity="0.049999999999999996" stroke-width="5" transform="translate(1, 1)"></path><path fill="none" d="M 3 0 L 13 0 C 16 0 16 0 16 3 L 16 13 C 16 16 16 16 13 16 L 3 16 C 0 16 0 16 0 13 L 0 3 C 0 0 0 0 3 0"  stroke="black" stroke-opacity="0.09999999999999999" stroke-width="3" transform="translate(1, 1)"></path><path fill="none" d="M 3 0 L 13 0 C 16 0 16 0 16 3 L 16 13 C 16 16 16 16 13 16 L 3 16 C 0 16 0 16 0 13 L 0 3 C 0 0 0 0 3 0"  stroke="black" stroke-opacity="0.15" stroke-width="1" transform="translate(1, 1)"></path><path fill="rgb(249, 249, 249)" fill-opacity=" .85" d="M 3 0 L 13 0 C 16 0 16 0 16 3 L 16 13 C 16 16 16 16 13 16 L 3 16 C 0 16 0 16 0 13 L 0 3 C 0 0 0 0 3 0"></path><text x="8"  style="font-size:12px;color:#333333;fill:#333333;" y="22"></text></g><text x="590" text-anchor="end"  style="cursor:pointer;color:#909090;font-size:9px;fill:#909090;" y="395"></text></svg>