<svg xmlns:xlink="http://www.w3.org/1999/xlink" version="1.1" style="font-family:'lucida grande', 'lucida sans unicode', arial, helvetica, sans-serif;font-size:12px;" xmlns="http://www.w3.org/2000/svg" width="600" height="300"><desc>Created with Highcharts 4.0.4</desc><defs><clipPath id="highcharts-75"><rect x="0" y="0" width="527" height="119"></rect></clipPath></defs><rect x="0" y="0" width="600" height="300" strokeWidth="0" fill="#FFFFFF" class=" highcharts-background"></rect><g class="highcharts-grid" ></g><g class="highcharts-grid" ><path fill="none" d="M 63 131.5 L 590 131.5" stroke="#C0C0C0" stroke-width="1"  opacity="1"></path></g><g class="highcharts-axis" ><path fill="none" d="M 204.5 190 L 204.5 200" stroke="#C0D0E0" stroke-width="1" opacity="1"></path><path fill="none" d="M 290.5 190 L 290.5 200" stroke="#C0D0E0" stroke-width="1" opacity="1"></path><path fill="none" d="M 376.5 190 L 376.5 200" stroke="#C0D0E0" stroke-width="1" opacity="1"></path><path fill="none" d="M 462.5 190 L 462.5 200" stroke="#C0D0E0" stroke-width="1" opacity="1"></path><path fill="none" d="M 548.5 190 L 548.5 200" stroke="#C0D0E0" stroke-width="1" opacity="1"></path><path fill="none" d="M 117.5 190 L 117.5 200" stroke="#C0D0E0" stroke-width="1" opacity="1"></path><path fill="none" d="M 63 190.5 L 590 190.5" stroke="#C0D0E0" stroke-width="1"  visibility="visible"></path></g><g class="highcharts-axis" ><text x="29.578125"  text-anchor="middle" transform="translate(0,0) rotate(270 29.578125 130.5)" class=" highcharts-yaxis-title" style="color:#707070;fill:#707070;" visibility="visible" y="130.5">报警次数</text></g><g class="highcharts-series-group" ><g class="highcharts-series" visibility="visible"  transform="translate(63,71) scale(1 1)" clip-path="url(#highcharts-75)"><path fill="none" d="M 5.166666666666666 59.5 L 8.75462962962963 59.5 L 12.342592592592592 59.5 L 15.930555555555555 59.5 L 19.51851851851852 59.5 L 23.10648148148148 59.5 L 26.694444444444443 59.5 L 30.282407407407405 59.5 L 33.87037037037037 59.5 L 37.45833333333333 59.5 L 41.0462962962963 59.5 L 44.63425925925926 59.5 L 48.22222222222222 59.5 L 51.81018518518518 59.5 L 55.398148148148145 59.5 L 58.98611111111111 59.5 L 62.57407407407407 59.5 L 66.16203703703704 59.5 L 69.75 59.5 L 73.33796296296296 59.5 L 76.92592592592592 59.5 L 80.51388888888889 59.5 L 84.10185185185185 59.5 L 87.68981481481481 59.5 L 91.27777777777777 59.5 L 94.86574074074073 59.5 L 98.4537037037037 59.5 L 102.04166666666666 59.5 L 105.62962962962962 59.5 L 109.21759259259258 59.5 L 112.80555555555554 59.5 L 116.39351851851852 59.5 L 119.98148148148148 59.5 L 123.56944444444444 59.5 L 127.1574074074074 59.5 L 130.74537037037035 59.5 L 134.33333333333331 59.5 L 137.92129629629628 59.5 L 141.50925925925924 59.5 L 145.09722222222223 59.5 L 148.6851851851852 59.5 L 152.27314814814815 59.5 L 155.86111111111111 59.5 L 159.44907407407408 59.5 L 163.03703703703704 59.5 L 166.625 59.5 L 170.21296296296296 59.5 L 173.80092592592592 59.5 L 177.38888888888889 59.5 L 180.97685185185185 59.5 L 184.5648148148148 59.5 L 188.15277777777777 59.5 L 191.74074074074073 59.5 L 195.3287037037037 59.5 L 198.91666666666666 59.5 L 202.50462962962962 59.5 L 206.09259259259258 59.5 L 209.68055555555554 59.5 L 213.2685185185185 59.5 L 216.85648148148147 59.5 L 220.44444444444443 59.5 L 224.0324074074074 59.5 L 227.62037037037035 59.5 L 231.20833333333331 59.5 L 234.79629629629628 59.5 L 238.38425925925924 59.5 L 241.9722222222222 59.5 L 245.56018518518516 59.5 L 249.14814814814812 59.5 L 252.7361111111111 59.5 L 256.3240740740741 59.5 L 259.912037037037 59.5 L 263.5 59.5 L 267.08796296296293 59.5 L 270.6759259259259 59.5 L 274.26388888888886 59.5 L 277.85185185185185 59.5 L 281.4398148148148 59.5 L 285.02777777777777 59.5 L 288.6157407407407 59.5 L 292.2037037037037 59.5 L 295.79166666666663 59.5 L 299.3796296296296 59.5 L 302.96759259259255 59.5 L 306.55555555555554 59.5 L 310.1435185185185 59.5 L 313.73148148148147 59.5 L 317.3194444444444 59.5 L 320.9074074074074 59.5 L 324.4953703703704 59.5 L 328.0833333333333 59.5 L 331.6712962962963 59.5 L 335.25925925925924 59.5 L 338.84722222222223 59.5 L 342.43518518518516 59.5 L 346.02314814814815 59.5 L 349.6111111111111 59.5 L 353.1990740740741 59.5 L 356.787037037037 59.5 L 360.375 59.5 L 363.96296296296293 59.5 L 367.5509259259259 59.5 L 371.13888888888886 59.5 L 374.72685185185185 59.5 L 378.3148148148148 59.5 L 381.90277777777777 59.5 L 385.4907407407407 59.5 L 389.0787037037037 59.5 L 392.66666666666663 59.5 L 396.2546296296296 59.5 L 399.84259259259255 59.5 L 403.43055555555554 59.5 L 407.0185185185185 59.5 L 410.60648148148147 59.5 L 414.1944444444444 59.5 L 417.7824074074074 59.5 L 421.3703703703703 59.5 L 424.9583333333333 59.5 L 428.54629629629625 59.5 L 432.13425925925924 59.5 L 435.7222222222222 59.5 L 439.31018518518516 59.5 L 442.89814814814815 59.5 L 446.4861111111111 59.5 L 450.0740740740741 59.5 L 453.662037037037 59.5 L 457.25 59.5 L 460.83796296296293 59.5 L 464.4259259259259 59.5 L 468.01388888888886 59.5 L 471.60185185185185 59.5 L 475.1898148148148 59.5 L 478.77777777777777 59.5 L 482.3657407407407 59.5 L 485.9537037037037 59.5 L 489.54166666666663 59.5 L 493.1296296296296 59.5 L 496.71759259259255 59.5 L 500.30555555555554 59.5 L 503.8935185185185 59.5 L 507.48148148148147 59.5 L 511.0694444444444 59.5 L 514.6574074074074 59.5 L 518.2453703703703 59.5 L 521.8333333333333 59.5" stroke="#ff0000" stroke-width="1"  stroke-linejoin="round" stroke-linecap="round"></path></g><g class="highcharts-markers" visibility="visible"  transform="translate(63,71) scale(1 1)" clip-path="none"></g></g><text x="300" text-anchor="middle" class="highcharts-title"  style="color:#333333;font-size:18px;fill:#333333;width:536px;" y="25"><tspan style="font-size: large; fill:black; font-weight:bold">报警时间分布</tspan></text><text x="300" text-anchor="middle" class="highcharts-subtitle"  style="color:#555555;fill:#555555;width:536px;" y="54"><tspan>装置: , 时间: 2017-02-09 13:44:01 --- 2017-02-10 13:44:01</tspan></text><g class="highcharts-axis-labels highcharts-xaxis-labels" ><text x="118.39814814814815" text-anchor="end" transform="translate(0,0) rotate(-45 118.39814814814815 207.89949493661166)" style="color:#606060;cursor:default;font-size:11px;fill:#606060;" y="207.89949493661166" opacity="1"><tspan>02月09日 16:00</tspan></text><text x="204.50925925925924" text-anchor="end" transform="translate(0,0) rotate(-45 204.50925925925924 207.89949493661166)" style="color:#606060;cursor:default;font-size:11px;fill:#606060;" y="207.89949493661166" opacity="1"><tspan>02月09日 20:00</tspan></text><text x="290.6203703703703" text-anchor="end" transform="translate(0,0) rotate(-45 290.6203703703703 207.89949493661166)" style="color:#606060;cursor:default;font-size:11px;fill:#606060;" y="207.89949493661166" opacity="1"><tspan>02月10日  00:00</tspan></text><text x="376.73148148148147" text-anchor="end" transform="translate(0,0) rotate(-45 376.73148148148147 207.89949493661166)" style="color:#606060;cursor:default;font-size:11px;fill:#606060;" y="207.89949493661166" opacity="1"><tspan>02月10日 04:00</tspan></text><text x="462.84259259259255" text-anchor="end" transform="translate(0,0) rotate(-45 462.84259259259255 207.89949493661166)" style="color:#606060;cursor:default;font-size:11px;fill:#606060;" y="207.89949493661166" opacity="1"><tspan>02月10日 08:00</tspan></text><text x="548.9537037037037" text-anchor="end" transform="translate(0,0) rotate(-45 548.9537037037037 207.89949493661166)" style="color:#606060;cursor:default;font-size:11px;fill:#606060;" y="207.89949493661166" opacity="1"><tspan>02月10日 12:00</tspan></text></g><g class="highcharts-axis-labels highcharts-yaxis-labels" ><text x="48" text-anchor="end" style="width:178px;color:#606060;cursor:default;font-size:11px;fill:#606060;" y="134.5" opacity="1">0</text></g><g class="highcharts-tooltip"  style="cursor:default;padding:0;white-space:nowrap;" transform="translate(0,-9999)"><path fill="none" d="M 3 0 L 13 0 C 16 0 16 0 16 3 L 16 13 C 16 16 16 16 13 16 L 3 16 C 0 16 0 16 0 13 L 0 3 C 0 0 0 0 3 0"  stroke="black" stroke-opacity="0.049999999999999996" stroke-width="5" transform="translate(1, 1)"></path><path fill="none" d="M 3 0 L 13 0 C 16 0 16 0 16 3 L 16 13 C 16 16 16 16 13 16 L 3 16 C 0 16 0 16 0 13 L 0 3 C 0 0 0 0 3 0"  stroke="black" stroke-opacity="0.09999999999999999" stroke-width="3" transform="translate(1, 1)"></path><path fill="none" d="M 3 0 L 13 0 C 16 0 16 0 16 3 L 16 13 C 16 16 16 16 13 16 L 3 16 C 0 16 0 16 0 13 L 0 3 C 0 0 0 0 3 0"  stroke="black" stroke-opacity="0.15" stroke-width="1" transform="translate(1, 1)"></path><path fill="rgb(249, 249, 249)" fill-opacity=" .85" d="M 3 0 L 13 0 C 16 0 16 0 16 3 L 16 13 C 16 16 16 16 13 16 L 3 16 C 0 16 0 16 0 13 L 0 3 C 0 0 0 0 3 0"></path><text x="8"  style="font-size:12px;color:#333333;fill:#333333;" y="22"></text></g><text x="590" text-anchor="end"  style="cursor:pointer;color:#909090;font-size:9px;fill:#909090;" y="295"></text></svg>