<svg xmlns:xlink="http://www.w3.org/1999/xlink" version="1.1" style="font-family:'lucida grande', 'lucida sans unicode', arial, helvetica, sans-serif;font-size:12px;" xmlns="http://www.w3.org/2000/svg" width="600" height="300"><desc>Created with Highcharts 4.0.4</desc><defs><clipPath id="highcharts-79"><rect x="0" y="0" width="518" height="143"></rect></clipPath></defs><rect x="0" y="0" width="600" height="300" strokeWidth="0" fill="#FFFFFF" class=" highcharts-background"></rect><g class="highcharts-grid" ></g><g class="highcharts-grid" ><path fill="none" d="M 72 70.5 L 590 70.5" stroke="#C0C0C0" stroke-width="1"  opacity="1"></path><path fill="none" d="M 72 119.5 L 590 119.5" stroke="#C0C0C0" stroke-width="1"  opacity="1"></path><path fill="none" d="M 72 166.5 L 590 166.5" stroke="#C0C0C0" stroke-width="1"  opacity="1"></path><path fill="none" d="M 72 214.5 L 590 214.5" stroke="#C0C0C0" stroke-width="1"  opacity="1"></path></g><g class="highcharts-axis" ><path fill="none" d="M 330.5 214 L 330.5 224" stroke="#C0D0E0" stroke-width="1" opacity="1"></path><path fill="none" d="M 460.5 214 L 460.5 224" stroke="#C0D0E0" stroke-width="1" opacity="1"></path><path fill="none" d="M 590.5 214 L 590.5 224" stroke="#C0D0E0" stroke-width="1" opacity="1"></path><path fill="none" d="M 201.5 214 L 201.5 224" stroke="#C0D0E0" stroke-width="1" opacity="1"></path><path fill="none" d="M 71.5 214 L 71.5 224" stroke="#C0D0E0" stroke-width="1" opacity="1"></path><path fill="none" d="M 72 214.5 L 590 214.5" stroke="#C0D0E0" stroke-width="1"  visibility="visible"></path></g><g class="highcharts-axis" ><text x="30.140625"  text-anchor="middle" transform="translate(0,0) rotate(270 30.140625 142.5)" class=" highcharts-yaxis-title" style="color:#707070;fill:#707070;" visibility="visible" y="142.5">优先级百分数</text></g><g class="highcharts-series-group" ><g class="highcharts-series" visibility="visible"  transform="translate(72,71) scale(1 1)" clip-path="url(#highcharts-79)"><rect x="30" y="125" width="12" height="19" fill="#ff0000" rx="0" ry="0"></rect><rect x="159" y="134" width="12" height="10" fill="#ff0000" rx="0" ry="0"></rect><rect x="289" y="115" width="12" height="29" fill="#ff0000" rx="0" ry="0"></rect><rect x="418" y="104" width="12" height="40" fill="#ff0000" rx="0" ry="0"></rect></g><g class="highcharts-markers" visibility="visible"  transform="translate(72,71) scale(1 1)" clip-path="none"></g><g class="highcharts-series" visibility="visible"  transform="translate(72,71) scale(1 1)" clip-path="url(#highcharts-79)"><rect x="49" y="121" width="12" height="23" fill="#FF8000" rx="0" ry="0"></rect><rect x="179" y="106" width="12" height="38" fill="#FF8000" rx="0" ry="0"></rect><rect x="308" y="134" width="12" height="10" fill="#FF8000" rx="0" ry="0"></rect><rect x="438" y="136" width="12" height="8" fill="#FF8000" rx="0" ry="0"></rect></g><g class="highcharts-markers" visibility="visible"  transform="translate(72,71) scale(1 1)" clip-path="none"></g><g class="highcharts-series" visibility="visible"  transform="translate(72,71) scale(1 1)" clip-path="url(#highcharts-79)"><rect x="69" y="39" width="12" height="105" fill="#F9f900" rx="0" ry="0"></rect><rect x="198" y="87" width="12" height="57" fill="#F9f900" rx="0" ry="0"></rect><rect x="328" y="20" width="12" height="124" fill="#F9f900" rx="0" ry="0"></rect><rect x="457" y="30" width="12" height="114" fill="#F9f900" rx="0" ry="0"></rect></g><g class="highcharts-markers" visibility="visible"  transform="translate(72,71) scale(1 1)" clip-path="none"></g><g class="highcharts-series" visibility="visible"  transform="translate(72,71) scale(1 1)" clip-path="url(#highcharts-79)"><rect x="88" y="100" width="12" height="44" fill="#6699CC" rx="0" ry="0"></rect><rect x="218" y="58" width="12" height="86" fill="#6699CC" rx="0" ry="0"></rect><rect x="347" y="115" width="12" height="29" fill="#6699CC" rx="0" ry="0"></rect><rect x="477" y="115" width="12" height="29" fill="#6699CC" rx="0" ry="0"></rect></g><g class="highcharts-markers" visibility="visible"  transform="translate(72,71) scale(1 1)" clip-path="none"></g></g><text x="300" text-anchor="middle" class="highcharts-title"  style="color:#333333;font-size:18px;fill:#333333;width:536px;" y="25"><tspan style="font-size: large; fill:black; font-weight:bold">报警工段-优先级分布</tspan></text><text x="300" text-anchor="middle" class="highcharts-subtitle"  style="color:#555555;fill:#555555;width:536px;" y="54"><tspan>装置: , 时间: 2017-02-09 13:44:01 --- 2017-02-10 13:44:01</tspan></text><g class="highcharts-data-labels" visibility="visible"  transform="translate(72,71) scale(1 1)" opacity="1"><g  style="cursor:default;" transform="translate(15,91)"><text x="3"  style="font-size:11px;color:#666;fill:#666;" y="17"><tspan style="font-size: large; fill:black; font-weight:bold">10%</tspan></text></g><g  style="cursor:default;" transform="translate(150,100)"><text x="3"  style="font-size:11px;color:#666;fill:#666;" y="17"><tspan style="font-size: large; fill:black; font-weight:bold">5%</tspan></text></g><g  style="cursor:default;" transform="translate(274,81)"><text x="3"  style="font-size:11px;color:#666;fill:#666;" y="17"><tspan style="font-size: large; fill:black; font-weight:bold">15%</tspan></text></g><g  style="cursor:default;" transform="translate(403,70)"><text x="3"  style="font-size:11px;color:#666;fill:#666;" y="17"><tspan style="font-size: large; fill:black; font-weight:bold">21%</tspan></text></g></g><g class="highcharts-data-labels" visibility="visible"  transform="translate(72,71) scale(1 1)" opacity="1"><g  style="cursor:default;" transform="translate(34,87)"><text x="3"  style="font-size:11px;color:#666;fill:#666;" y="17"><tspan style="font-size: large; fill:black; font-weight:bold">12%</tspan></text></g><g  style="cursor:default;" transform="translate(164,72)"><text x="3"  style="font-size:11px;color:#666;fill:#666;" y="17"><tspan style="font-size: large; fill:black; font-weight:bold">20%</tspan></text></g><g  style="cursor:default;" transform="translate(299,100)"><text x="3"  style="font-size:11px;color:#666;fill:#666;" y="17"><tspan style="font-size: large; fill:black; font-weight:bold">5%</tspan></text></g><g  style="cursor:default;" transform="translate(429,102)"><text x="3"  style="font-size:11px;color:#666;fill:#666;" y="17"><tspan style="font-size: large; fill:black; font-weight:bold">4%</tspan></text></g></g><g class="highcharts-data-labels" visibility="visible"  transform="translate(72,71) scale(1 1)" opacity="1"><g  style="cursor:default;" transform="translate(54,5)"><text x="3"  style="font-size:11px;color:#666;fill:#666;" y="17"><tspan style="font-size: large; fill:black; font-weight:bold">55%</tspan></text></g><g  style="cursor:default;" transform="translate(183,53)"><text x="3"  style="font-size:11px;color:#666;fill:#666;" y="17"><tspan style="font-size: large; fill:black; font-weight:bold">30%</tspan></text></g><g  style="cursor:default;" transform="translate(313,20)"><text x="3"  style="font-size:11px;color:#666;fill:#666;" y="17"><tspan style="font-size: large; fill:black; font-weight:bold">65%</tspan></text></g><g  style="cursor:default;" transform="translate(442,30)"><text x="3"  style="font-size:11px;color:#666;fill:#666;" y="17"><tspan style="font-size: large; fill:black; font-weight:bold">60%</tspan></text></g></g><g class="highcharts-data-labels" visibility="visible"  transform="translate(72,71) scale(1 1)" opacity="1"><g  style="cursor:default;" transform="translate(73,66)"><text x="3"  style="font-size:11px;color:#666;fill:#666;" y="17"><tspan style="font-size: large; fill:black; font-weight:bold">23%</tspan></text></g><g  style="cursor:default;" transform="translate(203,24)"><text x="3"  style="font-size:11px;color:#666;fill:#666;" y="17"><tspan style="font-size: large; fill:black; font-weight:bold">45%</tspan></text></g><g  style="cursor:default;" transform="translate(332,81)"><text x="3"  style="font-size:11px;color:#666;fill:#666;" y="17"><tspan style="font-size: large; fill:black; font-weight:bold">15%</tspan></text></g><g  style="cursor:default;" transform="translate(462,81)"><text x="3"  style="font-size:11px;color:#666;fill:#666;" y="17"><tspan style="font-size: large; fill:black; font-weight:bold">15%</tspan></text></g></g><g class="highcharts-legend"  transform="translate(190,262)"><g ><g><g class="highcharts-legend-item"  transform="translate(8,3)"><text x="21" style="color:#333333;font-size:12px;font-weight:bold;cursor:pointer;fill:#333333;" text-anchor="start"  y="16">紧急</text><rect x="0" y="5" width="16" height="12"  fill="#ff0000"></rect></g><g class="highcharts-legend-item"  transform="translate(76.1875,3)"><text x="21" y="16" style="color:#333333;font-size:12px;font-weight:bold;cursor:pointer;fill:#333333;" text-anchor="start" >高</text><rect x="0" y="5" width="16" height="12"  fill="#FF8000"></rect></g><g class="highcharts-legend-item"  transform="translate(130.78125,3)"><text x="21" y="16" style="color:#333333;font-size:12px;font-weight:bold;cursor:pointer;fill:#333333;" text-anchor="start" >中</text><rect x="0" y="5" width="16" height="12"  fill="#F9f900"></rect></g><g class="highcharts-legend-item"  transform="translate(185.375,3)"><text x="21" y="16" style="color:#333333;font-size:12px;font-weight:bold;cursor:pointer;fill:#333333;" text-anchor="start" >低</text><rect x="0" y="5" width="16" height="12"  fill="#6699CC"></rect></g></g></g></g><g class="highcharts-axis-labels highcharts-xaxis-labels" ><text x="136.75" text-anchor="middle" style="width:110px;color:#606060;cursor:default;font-size:11px;fill:#606060;" y="236" opacity="1">常压塔</text><text x="266.25" text-anchor="middle" style="width:110px;color:#606060;cursor:default;font-size:11px;fill:#606060;" y="236" opacity="1">减压塔</text><text x="395.75" text-anchor="middle" style="width:110px;color:#606060;cursor:default;font-size:11px;fill:#606060;" y="236" opacity="1">常压炉</text><text x="525.25" text-anchor="middle" style="width:110px;color:#606060;cursor:default;font-size:11px;fill:#606060;" y="236" opacity="1">减压炉</text></g><g class="highcharts-axis-labels highcharts-yaxis-labels" ><text x="57" text-anchor="end" style="width:178px;color:#606060;cursor:default;font-size:11px;fill:#606060;" y="218" opacity="1">0</text><text x="57" text-anchor="end" style="width:178px;color:#606060;cursor:default;font-size:11px;fill:#606060;" y="170.33333333333331" opacity="1">25</text><text x="57" text-anchor="end" style="width:178px;color:#606060;cursor:default;font-size:11px;fill:#606060;" y="122.66666666666666" opacity="1">50</text><text x="57" text-anchor="end" style="width:178px;color:#606060;cursor:default;font-size:11px;fill:#606060;" y="75" opacity="1">75</text></g><g class="highcharts-tooltip"  style="cursor:default;padding:0;white-space:nowrap;" transform="translate(0,-9999)"><path fill="none" d="M 3 0 L 13 0 C 16 0 16 0 16 3 L 16 13 C 16 16 16 16 13 16 L 3 16 C 0 16 0 16 0 13 L 0 3 C 0 0 0 0 3 0"  stroke="black" stroke-opacity="0.049999999999999996" stroke-width="5" transform="translate(1, 1)"></path><path fill="none" d="M 3 0 L 13 0 C 16 0 16 0 16 3 L 16 13 C 16 16 16 16 13 16 L 3 16 C 0 16 0 16 0 13 L 0 3 C 0 0 0 0 3 0"  stroke="black" stroke-opacity="0.09999999999999999" stroke-width="3" transform="translate(1, 1)"></path><path fill="none" d="M 3 0 L 13 0 C 16 0 16 0 16 3 L 16 13 C 16 16 16 16 13 16 L 3 16 C 0 16 0 16 0 13 L 0 3 C 0 0 0 0 3 0"  stroke="black" stroke-opacity="0.15" stroke-width="1" transform="translate(1, 1)"></path><path fill="rgb(249, 249, 249)" fill-opacity=" .85" d="M 3 0 L 13 0 C 16 0 16 0 16 3 L 16 13 C 16 16 16 16 13 16 L 3 16 C 0 16 0 16 0 13 L 0 3 C 0 0 0 0 3 0"></path><text x="8"  style="font-size:12px;color:#333333;fill:#333333;" y="22"></text></g><text x="590" text-anchor="end"  style="cursor:pointer;color:#909090;font-size:9px;fill:#909090;" y="295"></text></svg>