<svg xmlns:xlink="http://www.w3.org/1999/xlink" version="1.1" style="font-family:'lucida grande', 'lucida sans unicode', arial, helvetica, sans-serif;font-size:12px;" xmlns="http://www.w3.org/2000/svg" width="600" height="300"><desc>Created with Highcharts 4.0.4</desc><defs><clipPath id="highcharts-77"><rect x="0" y="0" width="580" height="214"></rect></clipPath></defs><rect x="0" y="0" width="600" height="300" strokeWidth="0" fill="#FFFFFF" class=" highcharts-background"></rect><rect x="9.5" y="70.5" width="581" height="215" strokeWidth="-1" stroke="#C0C0C0" stroke-width="1" fill="none" ></rect><g class="highcharts-series-group" ><g class="highcharts-series" visibility="visible"  transform="translate(10,71) scale(1 1)"><path fill="#ff0000" d="M 289.9835024705007 42.000001680052364 A 81 81 0 0 1 314.92535856883075 45.93037887588122 L 290 123 A 0 0 0 0 0 290 123 Z" stroke="#FFFFFF" stroke-width="1" stroke-linejoin="round" transform="translate(0,0)"></path><path fill="#FF8000" d="M 315.00241571443166 45.95534276510317 A 81 81 0 0 1 370.99995950000334 122.9190000135 L 290 123 A 0 0 0 0 0 290 123 Z" stroke="#FFFFFF" stroke-width="1" stroke-linejoin="round" transform="translate(0,0)"></path><path fill="#F9f900" d="M 371 123 A 81 81 0 0 1 337.70739394587514 188.4599462487793 L 290 123 A 0 0 0 0 0 290 123 Z" stroke="#FFFFFF" stroke-width="1" stroke-linejoin="round" transform="translate(9,5)"></path><path fill="#6699CC" d="M 337.6419101568414 188.50762090480356 A 81 81 0 1 1 289.8874926250162 42.00007813528106 L 290 123 A 0 0 0 1 0 290 123 Z" stroke="#FFFFFF" stroke-width="1" stroke-linejoin="round" transform="translate(0,0)"></path></g><g class="highcharts-markers" visibility="visible"  transform="translate(10,71) scale(1 1)"></g></g><text x="300" text-anchor="middle" class="highcharts-title"  style="color:#333333;font-size:18px;fill:#333333;width:536px;" y="25"><tspan style="font-size: large; fill:black; font-weight:bold">报警优先级分布</tspan></text><text x="300" text-anchor="middle" class="highcharts-subtitle"  style="color:#555555;fill:#555555;width:536px;" y="54"><tspan>装置: , 时间: 2017-02-09 13:44:01 --- 2017-02-10 13:44:01</tspan></text><g class="highcharts-data-labels" visibility="visible"  transform="translate(10,71) scale(1 1)" opacity="1"><path fill="none" d="M 312.36422561946557 13.366594193939711 C 307.36422561946557 13.366594193939711 306.1127498991438 21.26810091870081 304.39197078370125 32.13267266524733 L 302.6711916682587 42.997244411793844" stroke="#ff0000" stroke-width="1"></path><path fill="none" d="M 384.80088637561914 57.755836995535475 C 379.80088637561914 57.755836995535475 373.3287504206196 62.45811901387526 364.42956348249515 68.92375678909247 L 355.5303765443707 75.38939456430967" stroke="#FF8000" stroke-width="1"></path><path fill="none" d="M 393.90172418490886 173.3929454710897 C 388.90172418490886 173.3929454710897 381.77367199140184 169.76102147317332 371.9726002253298 164.7671259760383 L 362.1715284592578 159.7732304789033" stroke="#F9f900" stroke-width="1"></path><path fill="none" d="M 179.43272669123797 157.30088637561917 C 184.43272669123797 157.30088637561917 192.0411788215992 154.82875042061957 202.5028005008459 151.42956348249515 L 212.96442218009258 148.03037654437074" stroke="#6699CC" stroke-width="1"></path><g  style="cursor:pointer;" transform="translate(317,3)"><text x="3"  style="font-size:11px;color:black;fill:black;" y="17"><tspan style="font-weight:bold">紧急</tspan><tspan dx="0">: 5.0 %</tspan></text></g><g  style="cursor:pointer;" transform="translate(390,48)"><text x="3"  style="font-size:11px;color:black;fill:black;" y="17"><tspan style="font-weight:bold">高</tspan><tspan dx="0">: 20.0 %</tspan></text></g><g  style="cursor:pointer;" transform="translate(399,163)"><text x="3"  style="font-size:11px;color:black;fill:black;" y="17"><tspan style="font-weight:bold">中</tspan><tspan dx="0">: 15.0 %</tspan></text></g><g  style="cursor:pointer;" transform="translate(107,147)"><text x="3"  style="font-size:11px;color:black;fill:black;" y="17"><tspan style="font-weight:bold">低</tspan><tspan dx="0">: 60.0 %</tspan></text></g></g><g class="highcharts-legend" ><g ><g></g></g></g><text x="590" text-anchor="end"  style="cursor:pointer;color:#909090;font-size:9px;fill:#909090;" y="295"></text></svg>